<?xml version="1.0" standalone="no"?>
<!DOCTYPE svg PUBLIC "-//W3C//DTD SVG 20010904//EN"
 "http://www.w3.org/TR/2001/REC-SVG-20010904/DTD/svg10.dtd">
<svg version="1.0" xmlns="http://www.w3.org/2000/svg"
 width="1024.000000pt" height="1024.000000pt" viewBox="0 0 1024.000000 1024.000000"
 preserveAspectRatio="xMidYMid meet">

<g transform="translate(0.000000,1024.000000) scale(0.100000,-0.100000)"
fill="#000000" stroke="none">
<path d="M2331 8484 c-182 -49 -342 -214 -380 -392 -8 -39 -11 -849 -11 -2982
l0 -2929 23 -73 c52 -161 167 -282 327 -340 l65 -23 2114 -3 c1382 -1 2134 1
2170 8 146 26 308 145 370 272 62 125 61 108 61 854 l0 681 87 94 c47 52 145
153 216 226 l130 131 104 -3 104 -2 28 -44 c89 -140 286 -231 430 -199 233 51
391 268 353 488 -31 183 -151 311 -335 358 -202 52 -422 -75 -497 -287 l-18
-54 -124 -5 c-91 -4 -131 -10 -156 -23 -29 -16 -117 -103 -275 -272 l-47 -50
0 473 0 472 143 -2 c122 -3 147 0 180 16 26 13 107 100 268 287 127 148 234
269 238 269 5 0 29 -9 54 -20 25 -11 72 -25 104 -31 157 -29 350 78 424 235
63 135 61 257 -6 392 -148 300 -577 312 -753 22 -63 -105 -73 -239 -27 -368
14 -40 14 -45 -3 -64 -10 -12 -88 -102 -173 -201 -84 -99 -176 -204 -203 -232
l-49 -53 -166 0 c-153 0 -169 -2 -205 -23 -22 -12 -49 -35 -60 -50 l-21 -28
-5 -1402 -5 -1402 -24 -48 c-31 -63 -101 -123 -164 -142 -44 -13 -312 -15
-2112 -15 -1847 0 -2067 2 -2114 16 -73 21 -144 88 -171 160 -20 55 -20 64
-20 2952 l0 2897 24 50 c29 61 86 117 146 144 45 20 58 21 1727 21 974 0 1684
-4 1687 -9 3 -5 10 -222 16 -482 6 -261 15 -501 20 -534 5 -32 22 -84 37 -115
36 -73 127 -164 200 -198 l58 -27 520 -5 c286 -3 526 -9 534 -14 11 -7 12 -91
6 -515 l-7 -506 24 -45 c16 -30 36 -51 63 -64 35 -17 42 -18 78 -5 58 20 76
51 87 146 5 45 10 332 11 640 1 443 -1 567 -12 603 -19 62 -125 176 -834 888
-369 372 -449 447 -499 472 l-59 30 -1821 -1 c-1557 0 -1829 -2 -1875 -15z
m4242 -829 c279 -285 506 -519 504 -521 -1 -1 -196 -4 -432 -5 -415 -2 -432
-2 -476 18 -25 11 -56 35 -69 53 -30 42 -36 125 -45 595 -3 187 -8 351 -11
363 -3 17 -1 23 8 20 7 -3 241 -238 521 -523z m1611 -1698 c57 -31 86 -78 86
-139 0 -63 -18 -106 -63 -145 -54 -47 -97 -58 -155 -39 -168 56 -177 295 -14
347 38 12 100 2 146 -24z m2 -1623 c92 -52 114 -165 48 -251 -29 -38 -91 -73
-129 -73 -65 0 -140 53 -171 122 -15 34 -16 46 -6 84 20 76 71 129 137 144 39
10 71 3 121 -26z"/>
<path d="M3684 7700 c-169 -30 -306 -100 -416 -210 -130 -131 -191 -288 -190
-490 1 -127 25 -228 83 -350 33 -70 55 -99 127 -170 48 -47 108 -96 135 -110
26 -14 47 -27 47 -30 0 -3 -31 -12 -68 -21 -368 -89 -664 -402 -728 -769 -11
-65 -14 -138 -12 -248 3 -147 5 -159 27 -191 13 -18 42 -42 65 -52 39 -18 87
-19 1032 -19 714 0 1001 3 1025 11 46 16 86 55 100 97 16 49 5 357 -16 442
-75 306 -287 559 -564 675 -68 29 -173 60 -225 67 -14 2 -1 15 46 46 303 195
423 612 268 927 -89 182 -272 331 -463 379 -76 20 -209 27 -273 16z m248 -281
c172 -65 294 -247 291 -434 -6 -395 -471 -603 -738 -330 -184 188 -189 495
-12 663 128 120 307 160 459 101z m202 -1360 c301 -100 499 -353 514 -656 l5
-103 -863 0 -863 0 6 98 c18 288 157 501 405 620 134 64 178 71 456 71 l248 1
92 -31z"/>
<path d="M5978 6459 c-104 -11 -235 -97 -295 -192 -60 -96 -83 -250 -50 -344
36 -105 135 -220 226 -264 l51 -24 0 -318 c0 -257 3 -323 14 -345 8 -15 98
-110 200 -212 l186 -185 0 -336 0 -336 -172 -182 c-95 -100 -183 -196 -195
-213 -21 -28 -23 -43 -23 -143 0 -61 -3 -165 -6 -231 l-7 -119 -55 -25 c-74
-32 -152 -111 -193 -196 -29 -58 -34 -80 -37 -159 -4 -81 -1 -99 23 -161 52
-132 142 -220 270 -265 91 -32 207 -25 298 18 86 41 164 119 208 209 66 134
48 307 -46 432 -45 60 -123 120 -180 139 l-30 10 3 179 2 179 185 197 c102
108 189 208 195 223 6 16 10 188 10 442 0 350 -2 420 -15 446 -8 18 -98 115
-200 217 l-185 185 0 271 0 271 64 32 c70 34 152 115 187 182 159 313 -81 657
-433 618z m159 -285 c70 -53 89 -120 55 -196 -52 -118 -190 -142 -276 -48 -41
45 -53 96 -37 150 34 116 166 164 258 94z m-31 -3413 c113 -51 135 -183 45
-264 -68 -61 -154 -59 -226 4 -83 73 -58 210 47 262 43 22 84 21 134 -2z"/>
<path d="M2763 4510 c-85 -51 -84 -190 2 -226 29 -12 228 -14 1292 -14 1201 0
1260 1 1293 18 38 20 70 72 70 113 0 37 -39 91 -80 111 -33 17 -115 18 -1290
18 -1227 0 -1256 -1 -1287 -20z"/>
<path d="M3700 3800 c-664 -4 -922 -8 -941 -17 -14 -6 -38 -26 -52 -43 -62
-73 -16 -180 84 -195 24 -3 526 -5 1114 -3 1175 3 1106 -1 1146 64 41 66 21
156 -41 186 -30 15 -61 18 -215 16 -99 -2 -592 -5 -1095 -8z"/>
<path d="M2740 3052 c-48 -24 -75 -76 -66 -127 9 -48 61 -100 108 -108 18 -3
353 -2 745 1 701 7 712 7 740 28 15 11 34 39 42 61 13 36 12 43 -5 79 -10 21
-34 49 -53 61 l-34 23 -721 0 c-666 0 -724 -1 -756 -18z"/>
</g>
</svg>
